<?xml version="1.0" encoding="iso-8859-1"?>
<!-- Generator: Adobe Illustrator 19.0.0, SVG Export Plug-In . SVG Version: 6.00 Build 0)  -->
<svg version="1.1" id="Capa_1" xmlns="http://www.w3.org/2000/svg" xmlns:xlink="http://www.w3.org/1999/xlink" x="0px" y="0px"
	 viewBox="0 0 512 512" style="enable-background:new 0 0 512 512;" xml:space="preserve">
<path style="fill:#455A64;" d="M352,64h-32V16c0-8.832-7.168-16-16-16h-96c-8.832,0-16,7.168-16,16v48h-32
	c-17.632,0-32,14.368-32,32v384c0,17.952,14.048,32,32,32h192c17.952,0,32-14.048,32-32V96C384,78.048,369.952,64,352,64z"/>
<polygon style="fill:#FFC107;" points="256,160 192,320 256,320 256,416 320,256 256,256 "/>
<g>
</g>
<g>
</g>
<g>
</g>
<g>
</g>
<g>
</g>
<g>
</g>
<g>
</g>
<g>
</g>
<g>
</g>
<g>
</g>
<g>
</g>
<g>
</g>
<g>
</g>
<g>
</g>
<g>
</g>
</svg>
