<svg xmlns="http://www.w3.org/2000/svg" viewBox="0 0 96.4 96.4"><defs><style>.cls-1{fill:#fff;}</style></defs><title>Asset 1</title><g id="Layer_2" data-name="Layer 2"><g id="Layer_1-2" data-name="Layer 1"><g id="brand-claim-english"><g id="brand-english-2"><g id="symbol-22"><path class="cls-1" d="M48.2,0A48.2,48.2,0,1,0,96.4,48.2,48.2,48.2,0,0,0,48.2,0Zm0,91.9A43.7,43.7,0,1,1,91.9,48.2,43.71,43.71,0,0,1,48.2,91.9Z"/><path class="cls-1" d="M68.1,18.1H64.8V34.6H31.7V18.1H28.3a36.06,36.06,0,0,0,0,60.2h3.4V61.8H64.8V78.3h3.3a36.06,36.06,0,0,0,0-60.2Zm-41,53.7a31.58,31.58,0,0,1-2.63-44.57A31.08,31.08,0,0,1,27.1,24.6ZM64.8,57.2H31.7V39.1H64.8Zm4.5,14.5v-10h0V34.6h0v-10a31.65,31.65,0,0,1,2.39,44.71A29.94,29.94,0,0,1,69.3,71.7Z"/></g></g></g></g></g></svg>