<svg enable-background="new 0 0 256 256" height="512" viewBox="0 0 256 256" width="512" xmlns="http://www.w3.org/2000/svg"><g id="Layer_77"><g><g><g><path d="m207.966 23.426h-159.932c-4.418 0-7.999 3.581-7.999 7.999v21.267c0 4.418 3.581 8 7.999 8h159.931c4.418 0 7.999-3.581 7.999-7.999v-21.268c.001-4.418-3.581-7.999-7.998-7.999z" fill="#edf4fc"/></g></g><g><g><path d="m79.708 23.426h-31.674c-4.418 0-7.999 3.581-7.999 7.999v21.267c0 4.418 3.581 8 7.999 8h31.674z" fill="#87d147"/></g></g><g><g><path d="m207.966 78.523h-159.932c-4.418 0-7.999 3.581-7.999 7.999v21.267c0 4.418 3.581 8 7.999 8h159.931c4.418 0 7.999-3.581 7.999-7.999v-21.268c.001-4.417-3.581-7.999-7.998-7.999z" fill="#edf4fc"/></g></g><g><g><path d="m207.966 133.621h-159.932c-4.418 0-7.999 3.581-7.999 7.999v21.267c0 4.418 3.581 8 7.999 8h159.931c4.418 0 7.999-3.581 7.999-7.999v-21.268c.001-4.418-3.581-7.999-7.998-7.999z" fill="#edf4fc"/></g></g><g><g><path d="m79.708 78.523h-31.674c-4.418 0-7.999 3.581-7.999 7.999v21.267c0 4.418 3.581 8 7.999 8h31.674z" fill="#87d147"/></g></g><g><g><path d="m79.708 133.621h-31.674c-4.418 0-7.999 3.581-7.999 7.999v21.267c0 4.418 3.581 8 7.999 8h31.674z" fill="#87d147"/></g></g><g><g><path d="m207.966 188.718h-159.932c-4.418 0-7.999 3.581-7.999 7.999v21.267c0 4.418 3.581 8 7.999 8h159.931c4.418 0 7.999-3.581 7.999-7.999v-21.268c.001-4.417-3.581-7.999-7.998-7.999z" fill="#edf4fc"/></g></g><g><g><path d="m79.708 188.718h-31.674c-4.418 0-7.999 3.581-7.999 7.999v21.267c0 4.418 3.581 8 7.999 8h31.674z" fill="#fc657e"/></g></g><g><g><path d="m207.966 63.191h-159.931c-5.79 0-10.5-4.71-10.5-10.5v-21.266c0-5.789 4.71-10.499 10.499-10.499h159.931c5.79 0 10.5 4.71 10.5 10.499v21.268c0 5.788-4.71 10.498-10.499 10.498zm-159.932-37.265c-3.032 0-5.499 2.467-5.499 5.499v21.267c0 3.033 2.467 5.5 5.5 5.5h159.931c3.032 0 5.499-2.467 5.499-5.499v-21.268c0-3.032-2.467-5.499-5.5-5.499z"/></g></g><g><g><path d="m152.587 39.576h-54.808c-1.381 0-2.5-1.119-2.5-2.5s1.119-2.5 2.5-2.5h54.808c1.381 0 2.5 1.119 2.5 2.5s-1.119 2.5-2.5 2.5z"/></g></g><g><g><path d="m207.966 118.289h-159.931c-5.79 0-10.5-4.71-10.5-10.5v-21.267c0-5.789 4.71-10.499 10.499-10.499h159.931c5.79 0 10.5 4.71 10.5 10.499v21.268c0 5.789-4.71 10.499-10.499 10.499zm-159.932-37.266c-3.032 0-5.499 2.467-5.499 5.499v21.267c0 3.033 2.467 5.5 5.5 5.5h159.931c3.032 0 5.499-2.467 5.499-5.499v-21.268c0-3.032-2.467-5.499-5.5-5.499z"/></g></g><g><g><path d="m152.587 94.673h-54.808c-1.381 0-2.5-1.119-2.5-2.5s1.119-2.5 2.5-2.5h54.808c1.381 0 2.5 1.119 2.5 2.5s-1.119 2.5-2.5 2.5z"/></g></g><g><g><path d="m207.966 173.386h-159.931c-5.79 0-10.5-4.71-10.5-10.499v-21.268c0-5.789 4.71-10.498 10.499-10.498h159.931c5.79 0 10.5 4.709 10.5 10.498v21.269c0 5.789-4.71 10.498-10.499 10.498zm-159.932-37.265c-3.032 0-5.499 2.467-5.499 5.498v21.268c0 3.032 2.467 5.499 5.5 5.499h159.931c3.032 0 5.499-2.467 5.499-5.498v-21.269c0-3.031-2.467-5.498-5.5-5.498z"/></g></g><g><g><path d="m152.587 149.771h-54.808c-1.381 0-2.5-1.119-2.5-2.5s1.119-2.5 2.5-2.5h54.808c1.381 0 2.5 1.119 2.5 2.5s-1.119 2.5-2.5 2.5z"/></g></g><g><g><path d="m207.966 228.483h-159.931c-5.79 0-10.5-4.71-10.5-10.499v-21.268c0-5.789 4.71-10.499 10.499-10.499h159.931c5.79 0 10.5 4.71 10.5 10.499v21.269c0 5.789-4.71 10.498-10.499 10.498zm-159.932-37.265c-3.032 0-5.499 2.467-5.499 5.499v21.268c0 3.032 2.467 5.499 5.5 5.499h159.931c3.032 0 5.499-2.467 5.499-5.498v-21.269c0-3.032-2.467-5.499-5.5-5.499z"/></g></g><g><g><path d="m152.587 204.868h-54.808c-1.381 0-2.5-1.119-2.5-2.5s1.119-2.5 2.5-2.5h54.808c1.381 0 2.5 1.119 2.5 2.5s-1.119 2.5-2.5 2.5z"/></g></g><g><g><path d="m189.587 50.576h-91.808c-1.381 0-2.5-1.119-2.5-2.5s1.119-2.5 2.5-2.5h91.808c1.381 0 2.5 1.119 2.5 2.5s-1.119 2.5-2.5 2.5z"/></g></g><g><g><path d="m189.587 105.673h-91.808c-1.381 0-2.5-1.119-2.5-2.5s1.119-2.5 2.5-2.5h91.808c1.381 0 2.5 1.119 2.5 2.5s-1.119 2.5-2.5 2.5z"/></g></g><g><g><path d="m189.587 160.771h-91.808c-1.381 0-2.5-1.119-2.5-2.5s1.119-2.5 2.5-2.5h91.808c1.381 0 2.5 1.119 2.5 2.5s-1.119 2.5-2.5 2.5z"/></g></g><g><g><path d="m189.587 215.868h-91.808c-1.381 0-2.5-1.119-2.5-2.5s1.119-2.5 2.5-2.5h91.808c1.381 0 2.5 1.119 2.5 2.5s-1.119 2.5-2.5 2.5z"/></g></g><g><g><path d="m234.893 181.954c-2.829-.527-5.059-2.711-5.597-5.483-.027-.139-.221-.139-.248 0-.538 2.771-2.768 4.956-5.597 5.483-.142.026-.142.217 0 .243 2.829.527 5.059 2.711 5.597 5.483.027.139.221.139.248 0 .538-2.771 2.768-4.956 5.597-5.483.143-.026.143-.216 0-.243z" fill="#fc657e"/></g></g><g><g><path d="m236.705 14.882c-4.498-.838-8.043-4.31-8.898-8.716-.043-.221-.352-.221-.395 0-.855 4.406-4.4 7.879-8.898 8.716-.226.042-.226.345 0 .387 4.498.838 8.043 4.31 8.898 8.717.043.221.352.221.395 0 .855-4.406 4.4-7.879 8.898-8.717.226-.042.226-.344 0-.387z" fill="#f5c84c"/></g></g><g><g><path d="m54.442 244.198h2.33v-2.33c0-1.744 1.413-3.157 3.157-3.157s3.157 1.413 3.157 3.157v2.33h2.329c1.744 0 3.157 1.413 3.157 3.157s-1.413 3.157-3.157 3.157h-2.329v2.33c0 1.744-1.413 3.157-3.157 3.157s-3.157-1.413-3.157-3.157v-2.33h-2.33c-1.744 0-3.157-1.413-3.157-3.157s1.413-3.157 3.157-3.157z" fill="#70d6f9"/></g></g><g><g><circle cx="29.721" cy="235.623" fill="#f5c84c" r="3.377"/></g></g><g><g><circle cx="196.721" cy="3.377" fill="#87d147" r="3.377"/></g></g><g><g><circle cx="224.721" cy="69.377" fill="#70d6f9" r="3.377"/></g></g><g><g><path d="m79.708 62.708c-1.381 0-2.5-1.119-2.5-2.5v-36.38c0-1.381 1.119-2.5 2.5-2.5s2.5 1.119 2.5 2.5v36.38c0 1.381-1.119 2.5-2.5 2.5z"/></g></g><g><g><path d="m57.699 49.824c-.64 0-1.279-.244-1.768-.732l-5.972-5.972c-.977-.976-.977-2.559 0-3.535.977-.977 2.559-.977 3.536 0l4.205 4.204 8.47-8.47c.976-.977 2.56-.977 3.535 0 .977.977.977 2.559 0 3.535l-10.238 10.238c-.488.488-1.128.732-1.768.732z"/></g></g><g><g><path d="m79.708 117.626c-1.381 0-2.5-1.119-2.5-2.5v-35.938c0-1.381 1.119-2.5 2.5-2.5s2.5 1.119 2.5 2.5v35.938c0 1.381-1.119 2.5-2.5 2.5z"/></g></g><g><g><path d="m57.699 104.922c-.64 0-1.279-.244-1.768-.732l-5.972-5.972c-.977-.976-.977-2.559 0-3.535.977-.977 2.559-.977 3.536 0l4.205 4.204 8.47-8.47c.976-.977 2.56-.977 3.535 0 .977.977.977 2.559 0 3.535l-10.237 10.237c-.489.489-1.129.733-1.769.733z"/></g></g><g><g><path d="m79.708 172.941c-1.381 0-2.5-1.119-2.5-2.5v-36.189c0-1.381 1.119-2.5 2.5-2.5s2.5 1.119 2.5 2.5v36.189c0 1.381-1.119 2.5-2.5 2.5z"/></g></g><g><g><path d="m57.699 160.02c-.64 0-1.279-.244-1.768-.732l-5.972-5.972c-.977-.976-.977-2.559 0-3.535.977-.977 2.559-.977 3.536 0l4.205 4.204 8.47-8.47c.976-.977 2.56-.977 3.535 0 .977.977.977 2.559 0 3.535l-10.237 10.237c-.489.488-1.129.733-1.769.733z"/></g></g><g><g><path d="m79.708 228.246c-1.381 0-2.5-1.119-2.5-2.5v-36.369c0-1.381 1.119-2.5 2.5-2.5s2.5 1.119 2.5 2.5v36.369c0 1.381-1.119 2.5-2.5 2.5z"/></g></g><g><g><path d="m54.153 215.663c-.64 0-1.28-.244-1.768-.732-.977-.977-.977-2.559 0-3.535l11.556-11.556c.976-.977 2.56-.977 3.535 0 .977.977.977 2.559 0 3.535l-11.556 11.556c-.487.488-1.127.732-1.767.732z"/></g></g><g><g><path d="m65.709 215.663c-.64 0-1.28-.244-1.768-.732l-11.556-11.556c-.977-.977-.977-2.559 0-3.535.976-.977 2.56-.977 3.535 0l11.556 11.556c.977.977.977 2.559 0 3.535-.487.488-1.127.732-1.767.732z"/></g></g></g></g></svg>