<svg xmlns="http://www.w3.org/2000/svg" xmlns:xlink="http://www.w3.org/1999/xlink" viewBox="0 0 228 228"><defs><style>.cls-1{fill:#fff;}.cls-2{fill:#06ae2f;}.cls-3{fill:#0881e9;}.cls-4{fill:url(#linear-gradient);}</style><linearGradient id="linear-gradient" x1="-74.05" y1="757.1" x2="-74.05" y2="755.66" gradientTransform="matrix(86.53, 0, 0, -40.68, 6516.8, 30853.65)" gradientUnits="userSpaceOnUse"><stop offset="0" stop-color="#0881e9"/><stop offset="1" stop-color="#999"/></linearGradient></defs><title>Asset 2</title><g id="Layer_2" data-name="Layer 2"><g id="Layer_1-2" data-name="Layer 1"><circle class="cls-1" cx="114" cy="114" r="114"/><g id="logo_item--logo_0" data-name="logo  item--logo 0"><path class="cls-2" d="M122.61,165.59s.77-40.65-39.88-41.43S28,115.56,28,115.56s29,81.3,88.36,51.59L53,135.11S117.93,149.17,122.61,165.59Z"/><path class="cls-3" d="M153.88,121c-23.46,0-35.18,10.17-35.18,10.17l4.7,17.19c26.57.78,50.8-14.85,50.8-14.85-14.85,23.46-56.27,43-56.27,43C195.3,175,200,111.65,200,111.65,187.49,119.46,177.33,121,153.88,121Z"/><polygon class="cls-3" points="90.92 123.37 90.92 101.36 76.58 101.36 76.58 118.69 90.92 123.37"/><polygon class="cls-2" points="104.51 124.94 104.51 66.64 94.32 66.64 94.32 119.46 104.51 124.94"/><polygon class="cls-3" points="118.85 121.82 118.85 87.78 112.06 87.78 112.06 127.3 118.85 121.82"/><polygon class="cls-2" points="123.95 121.82 133.95 117.12 133.95 98.91 123.95 98.91 123.95 121.82"/><polygon class="cls-2" points="128.1 81.95 128.1 96.8 130.55 94.46 130.55 79.61 128.1 81.95"/><polygon class="cls-3" points="137.34 108.16 137.34 115.71 164.52 115.71 164.52 113.25 158.48 113.25 158.48 108.16 137.34 108.16"/><polygon class="cls-2" points="73.94 118.69 73.94 113.25 68.08 113.25 68.08 121.03 73.94 118.69"/><path class="cls-4" d="M109.32,59.28a63.33,63.33,0,0,1,62,50.5,62.13,62.13,0,0,0-124,0A63.33,63.33,0,0,1,109.32,59.28Z"/></g></g></g></svg>